<?xml version="1.0" encoding="utf-8"?>
<!-- Generator: Adobe Illustrator 21.0.0, SVG Export Plug-In . SVG Version: 6.00 Build 0)  -->
<svg version="1.1" id="Layer_1" xmlns="http://www.w3.org/2000/svg" xmlns:xlink="http://www.w3.org/1999/xlink" x="0px" y="0px"
	 viewBox="0 0 22.2 22.3" style="enable-background:new 0 0 22.2 22.3;" xml:space="preserve">
<style type="text/css">
	.st0{fill:#FFFFFF;}
	.st1{fill:#E20505;}
</style>
<g>
	<circle class="st0" cx="11.5" cy="11.4" r="8.5"/>
	<path class="st1" d="M11.1,16.9c-3,0-5.4-2.5-5.4-5.5c0-2.5,1.7-4.6,4-5.2v1.6c-1.5,0.5-2.5,2-2.5,3.6c0,2.2,1.7,4,3.9,4s4-1.8,4-4
		c0-1.6-1.1-3.1-2.5-3.6V6.2c2.3,0.6,4,2.7,4,5.2C16.6,14.4,14.1,16.9,11.1,16.9L11.1,16.9z M10.3,4.4h1.6v7.7h-1.6V4.4z M11.1,0
		C5,0,0,5,0,11.2c0,6.1,5,11.1,11.1,11.1c6.2,0,11.1-5,11.1-11.1C22.2,5,17.3,0,11.1,0L11.1,0z"/>
</g>
</svg>
